<?xml version="1.0" encoding="UTF-8" standalone="no"?>
<svg
   width="48"
   height="48"
   version="1.1"
   id="svg36"
   sodipodi:docname="gem03.svg"
   inkscape:version="1.1 (c68e22c387, 2021-05-23)"
   xmlns:inkscape="http://www.inkscape.org/namespaces/inkscape"
   xmlns:sodipodi="http://sodipodi.sourceforge.net/DTD/sodipodi-0.dtd"
   xmlns:xlink="http://www.w3.org/1999/xlink"
   xmlns="http://www.w3.org/2000/svg"
   xmlns:svg="http://www.w3.org/2000/svg">
  <sodipodi:namedview
     id="namedview38"
     pagecolor="#505050"
     bordercolor="#ffffff"
     borderopacity="1"
     inkscape:pageshadow="0"
     inkscape:pageopacity="0"
     inkscape:pagecheckerboard="1"
     showgrid="false"
     inkscape:zoom="15.6875"
     inkscape:cx="23.968127"
     inkscape:cy="24"
     inkscape:window-width="1920"
     inkscape:window-height="1001"
     inkscape:window-x="-9"
     inkscape:window-y="606"
     inkscape:window-maximized="1"
     inkscape:current-layer="svg36" />
  <defs
     id="defs14">
    <linearGradient
       id="linearGradient679">
      <stop
         style="stop-color:#ed9a00"
         offset="0"
         id="stop2" />
      <stop
         style="stop-color:#af3a05"
         offset="1"
         id="stop4" />
    </linearGradient>
    <linearGradient
       id="linearGradient677"
       x1="248.99"
       x2="329.08"
       y1="424.22"
       y2="495.66"
       gradientTransform="matrix(0.089435,0,0,0.08543,-9.6528,-21.247)"
       gradientUnits="userSpaceOnUse">
      <stop
         style="stop-color:#ea8d00"
         offset="0"
         id="stop7" />
      <stop
         style="stop-color:#af3f05"
         offset="1"
         id="stop9" />
    </linearGradient>
    <linearGradient
       id="linearGradient678"
       x1="416.31"
       x2="388.74"
       y1="492.59"
       y2="482.56"
       gradientTransform="matrix(0.10775,0,0,0.070906,-9.6528,-21.247)"
       gradientUnits="userSpaceOnUse"
       xlink:href="#linearGradient679" />
    <linearGradient
       id="linearGradient682"
       x1="373.32"
       x2="474.44"
       y1="861.1"
       y2="803.83"
       gradientTransform="matrix(0.10773,0,0,0.070924,-9.6528,-21.247)"
       gradientUnits="userSpaceOnUse"
       spreadMethod="reflect"
       xlink:href="#linearGradient679" />
  </defs>
  <rect
     x="-16.497"
     y="-16.098"
     width="606.72"
     height="606.72"
     style="fill:none;stroke-width:1pt"
     id="rect16" />
  <g
     transform="matrix(0.93120213,0,0,0.9222476,1.5135958,2.1259898)"
     id="g34">
    <path
       d="m 24.385,3.4948 19.924,9.8435 -0.11852,20.517 -19.924,10.081 -20.28,-10.199 0.11861,-20.162 z"
       style="opacity:0.99;fill:#db7a00;fill-rule:evenodd;stroke:#000000;stroke-width:2.6223"
       id="path18" />
    <path
       d="m 33.541,9.4771 -3.1384,5.4398 5.8414,2.8096 6.7299,0.0278 0.0074,-3.6153 z"
       style="fill:url(#linearGradient678);fill-rule:evenodd"
       id="path20" />
    <path
       d="m 36.356,18.191 -0.0013,11.001 6.5481,0.35121 0.07194,-11.784 z"
       style="fill:#9e3400;fill-rule:evenodd"
       id="path22" />
    <path
       d="m 36.375,29.19 c -0.01241,0.01372 -12.268,6.6798 -12.268,6.6798 l 1.762,5.695 17.023,-8.5181 0.01112,-3.5133 z"
       style="fill:url(#linearGradient682);fill-rule:evenodd"
       id="path24" />
    <path
       d="M 24.144,35.844 22.6316,41.6479 5.3036,32.9293 12.5062,29.552 Z"
       style="fill:#a93b02;fill-rule:evenodd"
       id="path26" />
    <path
       d="m 24.384,4.956 -0.06713,7.3301 -12.22,6.0147 -6.6919,-3.9049 z"
       style="fill:#eded9c;fill-rule:evenodd"
       id="path28" />
    <path
       d="m 24.313,12.902 -11.651,5.764 -0.04668,10.455 11.505,6.0999 11.759,-6.2558 0.10183,-10.769 z"
       style="fill:url(#linearGradient677);fill-rule:evenodd"
       id="path30" />
    <path
       d="m 24.385,4.9495 -0.07185,7.3403 6.1999,2.6791 3.1475,-5.4324 z"
       style="fill:#ad3c00;fill-rule:evenodd"
       id="path32" />
  </g>
</svg>
