<?xml version="1.0" encoding="UTF-8" standalone="no"?>
<svg
   width="48"
   height="48"
   version="1.1"
   id="svg25"
   sodipodi:docname="gem06.svg"
   inkscape:version="1.1 (c68e22c387, 2021-05-23)"
   xmlns:inkscape="http://www.inkscape.org/namespaces/inkscape"
   xmlns:sodipodi="http://sodipodi.sourceforge.net/DTD/sodipodi-0.dtd"
   xmlns="http://www.w3.org/2000/svg"
   xmlns:svg="http://www.w3.org/2000/svg">
  <sodipodi:namedview
     id="namedview27"
     pagecolor="#505050"
     bordercolor="#ffffff"
     borderopacity="1"
     inkscape:pageshadow="0"
     inkscape:pageopacity="0"
     inkscape:pagecheckerboard="1"
     showgrid="false"
     inkscape:zoom="15.6875"
     inkscape:cx="23.968127"
     inkscape:cy="24"
     inkscape:window-width="1920"
     inkscape:window-height="1001"
     inkscape:window-x="-9"
     inkscape:window-y="606"
     inkscape:window-maximized="1"
     inkscape:current-layer="svg25" />
  <defs
     id="defs7">
    <linearGradient
       id="linearGradient735"
       x1="363.26"
       x2="313.14"
       y1="537.52"
       y2="588.02"
       gradientTransform="scale(0.99913,1.0009)"
       gradientUnits="userSpaceOnUse"
       spreadMethod="reflect">
      <stop
         style="stop-color:#7f7a00"
         offset="0"
         id="stop2" />
      <stop
         style="stop-color:#bdbf00"
         offset="1"
         id="stop4" />
    </linearGradient>
  </defs>
  <g
     transform="matrix(0.07417391,0,0,0.07404668,3.0820312,2.7573982)"
     id="g23">
    <path
       transform="translate(-75.169,-235.53)"
       d="M 108.72,523.2 356.53,771.3 605.6,522.54 356.78,273.56 Z"
       style="fill:url(#linearGradient735);fill-rule:evenodd;stroke:#000000;stroke-width:30"
       id="path9" />
    <rect
       transform="rotate(45)"
       x="360.51999"
       y="-37.853001"
       width="83.103996"
       height="83.103996"
       style="fill:#919103;fill-rule:evenodd"
       id="rect11" />
    <path
       transform="translate(-75.169,-235.53)"
       d="M 412.23,409.81 244.5,578.72 245.681,412.18 Z"
       style="fill:#d7e011;fill-rule:evenodd"
       id="path13" />
    <path
       transform="translate(-75.169,-235.53)"
       d="m 356.87,294.92 0.93,169.68 -58.531,58.921 -169.34,-0.319 z"
       style="fill:#f3f791;fill-opacity:0.76812;fill-rule:evenodd"
       id="path15" />
    <path
       transform="translate(-75.169,-235.53)"
       d="m 357.02,581.13 -82.986,83.812 82.681,85.044 84.378,-84.515 z"
       style="fill:#bec006;fill-opacity:0.74396;fill-rule:evenodd"
       id="path17" />
    <path
       transform="translate(-75.169,-235.53)"
       d="m 356.96,581.08 143.3,-142.67 84.065,84.017 -143.28,143.18 c 0,0 -84.032,-84.523 -84.078,-84.523 z"
       style="fill:#ebf007;fill-opacity:0.77295;fill-rule:evenodd"
       id="path19" />
    <path
       transform="translate(-75.169,-235.53)"
       d="M 582.58,522.48 416.9,522.373"
       style="fill:none;stroke:#bec006;stroke-width:2.5;stroke-linecap:round"
       id="path21" />
  </g>
</svg>
