<?xml version="1.0" encoding="UTF-8" standalone="no"?>
<svg
   width="48"
   height="48"
   version="1.1"
   id="svg25"
   sodipodi:docname="gem01.svg"
   inkscape:version="1.1 (c68e22c387, 2021-05-23)"
   xmlns:inkscape="http://www.inkscape.org/namespaces/inkscape"
   xmlns:sodipodi="http://sodipodi.sourceforge.net/DTD/sodipodi-0.dtd"
   xmlns="http://www.w3.org/2000/svg"
   xmlns:svg="http://www.w3.org/2000/svg">
  <sodipodi:namedview
     id="namedview27"
     pagecolor="#505050"
     bordercolor="#ffffff"
     borderopacity="1"
     inkscape:pageshadow="0"
     inkscape:pageopacity="0"
     inkscape:pagecheckerboard="1"
     showgrid="false"
     inkscape:zoom="15.6875"
     inkscape:cx="23.968127"
     inkscape:cy="24"
     inkscape:window-width="1920"
     inkscape:window-height="1001"
     inkscape:window-x="-9"
     inkscape:window-y="606"
     inkscape:window-maximized="1"
     inkscape:current-layer="svg25" />
  <defs
     id="defs7">
    <radialGradient
       id="radialGradient599"
       cx="284.27"
       cy="587.82"
       r="74.123"
       gradientTransform="matrix(0.079045,0,0,0.081125,-6.3517,-19.982)"
       gradientUnits="userSpaceOnUse"
       spreadMethod="reflect">
      <stop
         style="stop-color:#c2c2c2"
         offset="0"
         id="stop2" />
      <stop
         style="stop-color:#979797"
         offset="1"
         id="stop4" />
    </radialGradient>
  </defs>
  <g
     transform="matrix(0.98348935,0,0,0.9591426,0.51653309,0.64339026)"
     id="g23">
    <path
       d="m 23.878,4.8315 12.913,6.206 6.1059,13.513 -5.8057,13.013 -12.913,6.3061 -13.213,-6.3061 -6.1059,-13.013 5.8057,-13.413 z"
       style="fill:url(#radialGradient599);fill-rule:evenodd;stroke:#000000;stroke-width:2.4023"
       id="path9" />
    <path
       d="m 23.878,6.1599 0.0438,5.5628 -12.32,0.31262 z"
       style="fill:#d0d0d0;fill-opacity:0.98039;fill-rule:evenodd"
       id="path11" />
    <path
       d="m 25.95,39.146 3.6958,-2.5843 3.5039,-15.772 5.7644,9.7381 -2.7221,6.131 -10.65,5.2033 z"
       style="fill:#d4d8d4;fill-rule:evenodd"
       id="path13" />
    <path
       d="m 24.106,36.617 -0.17513,-12.063 11.432,-0.02747 -5.7069,12.063 z"
       style="fill:#ffffff;fill-opacity:0.64734;fill-rule:evenodd"
       id="path15" />
    <path
       d="m 23.915,11.716 -0.03756,-5.5565 11.99,5.7546 z"
       style="opacity:0.99;fill:#8f8f8f;fill-opacity:0.98039;fill-rule:evenodd"
       id="path17" />
    <path
       d="m 6.1606,24.543 17.767,0.01409 -0.0062,-12.841 -12.31,0.31591 z"
       style="fill:#ffffff;fill-opacity:0.64734;fill-rule:evenodd"
       id="path19" />
    <path
       d="m 35.366,24.539 3.3358,-6.3358 2.8878,6.3358 z"
       style="fill:#b5b7b2;fill-rule:evenodd"
       id="path21" />
  </g>
</svg>
